HIERARCHY
ROOT Hips
{
	OFFSET -0.150001 87.211151 2.220142
	CHANNELS 6 Xposition Yposition Zposition Xrotation Yrotation Zrotation
	JOINT Pelvis
	{
		OFFSET 0.000000 0.000000 0.000000
		CHANNELS 3 Xrotation Yrotation Zrotation
		JOINT LeftUpLeg
		{
			OFFSET 12.016979 -9.376381 -2.439418
			CHANNELS 3 Xrotation Yrotation Zrotation
			JOINT LeftLeg
			{
				OFFSET -0.817380 -32.836784 2.110571
				CHANNELS 3 Xrotation Yrotation Zrotation
				JOINT LeftFoot
				{
					OFFSET -0.783454 -32.055588 -0.570427
					CHANNELS 3 Xrotation Yrotation Zrotation
					JOINT LeftToeBase
					{
						OFFSET 0.728348 -11.045863 13.180651
						CHANNELS 3 Xrotation Yrotation Zrotation
						End Site
						{
							OFFSET 0.000000 17.212528 0.000000
						}
					}
				}
				JOINT LeftPantLeg
				{
					OFFSET -0.409309 -16.703976 -3.143619
					CHANNELS 3 Xrotation Yrotation Zrotation
					End Site
					{
						OFFSET 0.000000 24.536182 0.000000
					}
				}
			}
			JOINT Left_Butt
			{
				OFFSET -6.595482 1.489731 -3.183693
				CHANNELS 3 Xrotation Yrotation Zrotation
				End Site
				{
					OFFSET 0.000000 20.194176 0.000000
				}
			}
		}
		JOINT RightUpLeg
		{
			OFFSET -11.716976 -9.376381 -2.439418
			CHANNELS 3 Xrotation Yrotation Zrotation
			JOINT RightLeg
			{
				OFFSET 0.806788 -32.837044 2.110606
				CHANNELS 3 Xrotation Yrotation Zrotation
				JOINT RightFoot
				{
					OFFSET 0.794045 -32.055328 -0.570462
					CHANNELS 3 Xrotation Yrotation Zrotation
					JOINT RightToeBase
					{
						OFFSET -0.728348 -11.045862 13.180651
						CHANNELS 3 Xrotation Yrotation Zrotation
						End Site
						{
							OFFSET 0.000000 17.212528 0.000000
						}
					}
				}
				JOINT RightPantLeg
				{
					OFFSET 0.420190 -16.703716 -3.143653
					CHANNELS 3 Xrotation Yrotation Zrotation
					End Site
					{
						OFFSET 0.000000 24.536198 0.000000
					}
				}
			}
			JOINT Right_Butt
			{
				OFFSET 6.595978 1.489731 -3.183693
				CHANNELS 3 Xrotation Yrotation Zrotation
				End Site
				{
					OFFSET 0.000000 20.194397 0.000000
				}
			}
		}
	}
	JOINT Spine
	{
		OFFSET -0.062379 7.848404 3.918342
		CHANNELS 3 Xrotation Yrotation Zrotation
		JOINT Spine1
		{
			OFFSET -0.072775 11.422256 0.713384
			CHANNELS 3 Xrotation Yrotation Zrotation
			JOINT Spine2
			{
				OFFSET -0.083171 13.054008 -1.931563
				CHANNELS 3 Xrotation Yrotation Zrotation
				JOINT Neck
				{
					OFFSET -0.092225 14.121773 -5.138807
					CHANNELS 3 Xrotation Yrotation Zrotation
					JOINT Head
					{
						OFFSET 0.000171 10.447388 -0.842032
						CHANNELS 3 Xrotation Yrotation Zrotation
						JOINT Visor
						{
							OFFSET 0.457139 25.671173 16.550411
							CHANNELS 3 Xrotation Yrotation Zrotation
							End Site
							{
								OFFSET 0.000000 26.061493 0.000000
							}
						}
						JOINT HairMidA
						{
							OFFSET 0.459357 31.585358 8.437352
							CHANNELS 3 Xrotation Yrotation Zrotation
							End Site
							{
								OFFSET 0.000000 26.061493 0.000000
							}
						}
						JOINT HairMidB
						{
							OFFSET 0.464023 33.309235 -8.389654
							CHANNELS 3 Xrotation Yrotation Zrotation
							End Site
							{
								OFFSET 0.000000 26.061493 0.000000
							}
						}
						JOINT HairMidC
						{
							OFFSET 0.466553 27.991165 -17.375053
							CHANNELS 3 Xrotation Yrotation Zrotation
							End Site
							{
								OFFSET 0.000000 26.061493 0.000000
							}
						}
						JOINT HairMidD
						{
							OFFSET 0.467668 17.888062 -21.169472
							CHANNELS 3 Xrotation Yrotation Zrotation
							End Site
							{
								OFFSET 0.000000 26.061493 0.000000
							}
						}
						JOINT HairMidE
						{
							OFFSET 5.325659 3.514648 -14.369741
							CHANNELS 3 Xrotation Yrotation Zrotation
							End Site
							{
								OFFSET 0.000000 26.061493 0.000000
							}
						}
						JOINT HairMidF
						{
							OFFSET -4.394134 3.514587 -14.372442
							CHANNELS 3 Xrotation Yrotation Zrotation
							End Site
							{
								OFFSET 0.000000 26.061493 0.000000
							}
						}
						JOINT HairLeftA
						{
							OFFSET 15.319869 25.746521 2.623347
							CHANNELS 3 Xrotation Yrotation Zrotation
							End Site
							{
								OFFSET 0.000000 26.061493 0.000000
							}
						}
						JOINT HairLeftB
						{
							OFFSET 12.619466 29.289368 -8.731475
							CHANNELS 3 Xrotation Yrotation Zrotation
							End Site
							{
								OFFSET 0.000000 26.061493 0.000000
							}
						}
						JOINT HairLeftC
						{
							OFFSET 15.714844 15.959915 2.909834
							CHANNELS 3 Xrotation Yrotation Zrotation
							End Site
							{
								OFFSET 0.000000 26.061493 0.000000
							}
						}
						JOINT HairLeftD
						{
							OFFSET 16.101723 18.437363 -7.553188
							CHANNELS 3 Xrotation Yrotation Zrotation
							End Site
							{
								OFFSET 0.000000 26.061493 0.000000
							}
						}
						JOINT HairLeftE
						{
							OFFSET 9.731930 17.914993 -18.316845
							CHANNELS 3 Xrotation Yrotation Zrotation
							End Site
							{
								OFFSET 0.000000 26.061493 0.000000
							}
						}
						JOINT HairLeftF
						{
							OFFSET 11.204299 4.953644 -9.668147
							CHANNELS 3 Xrotation Yrotation Zrotation
							End Site
							{
								OFFSET 0.000000 26.061493 0.000000
							}
						}
						JOINT HairRightA
						{
							OFFSET -14.397850 25.746338 2.615088
							CHANNELS 3 Xrotation Yrotation Zrotation
							End Site
							{
								OFFSET 0.000000 26.061493 0.000000
							}
						}
						JOINT HairRightB
						{
							OFFSET -11.691177 29.289230 -8.738231
							CHANNELS 3 Xrotation Yrotation Zrotation
							End Site
							{
								OFFSET 0.000000 26.061493 0.000000
							}
						}
						JOINT HairRightC
						{
							OFFSET -14.792866 15.959732 2.901356
							CHANNELS 3 Xrotation Yrotation Zrotation
							End Site
							{
								OFFSET 0.000000 26.061493 0.000000
							}
						}
						JOINT HairRightD
						{
							OFFSET -15.173956 18.437164 -7.561880
							CHANNELS 3 Xrotation Yrotation Zrotation
							End Site
							{
								OFFSET 0.000000 26.061493 0.000000
							}
						}
						JOINT HairRightE
						{
							OFFSET -8.798178 17.914886 -18.321995
							CHANNELS 3 Xrotation Yrotation Zrotation
							End Site
							{
								OFFSET 0.000000 26.061493 0.000000
							}
						}
						JOINT HairRightF
						{
							OFFSET -10.275196 4.953506 -9.674116
							CHANNELS 3 Xrotation Yrotation Zrotation
							End Site
							{
								OFFSET 0.000000 26.061493 0.000000
							}
						}
					}
				}
				JOINT LeftShoulder
				{
					OFFSET 5.133502 7.341248 -1.867558
					CHANNELS 3 Xrotation Yrotation Zrotation
					JOINT LeftArm
					{
						OFFSET 8.073057 0.933060 -2.176591
						CHANNELS 3 Xrotation Yrotation Zrotation
						JOINT LeftForeArm
						{
							OFFSET 31.170431 -0.110054 -2.516341
							CHANNELS 3 Xrotation Yrotation Zrotation
							JOINT LeftHand
							{
								OFFSET 31.758984 -0.038307 -0.873058
								CHANNELS 3 Xrotation Yrotation Zrotation
								JOINT LeftHandThumb1
								{
									OFFSET 3.014229 -1.208282 4.882164
									CHANNELS 3 Xrotation Yrotation Zrotation
									JOINT LeftHandThumb2
									{
										OFFSET 2.436516 -1.204407 1.408011
										CHANNELS 3 Xrotation Yrotation Zrotation
										JOINT LeftHandThumb3
										{
											OFFSET 2.254616 -1.535309 0.973410
											CHANNELS 3 Xrotation Yrotation Zrotation
											End Site
											{
												OFFSET 0.000000 2.896202 0.000000
											}
										}
									}
								}
								JOINT LeftHandIndex1
								{
									OFFSET 8.516617 0.916695 3.193901
									CHANNELS 3 Xrotation Yrotation Zrotation
									JOINT LeftHandIndex2
									{
										OFFSET 3.305534 -0.513794 0.148831
										CHANNELS 3 Xrotation Yrotation Zrotation
										JOINT LeftHandIndex3
										{
											OFFSET 3.149483 -1.032883 -0.004956
											CHANNELS 3 Xrotation Yrotation Zrotation
											End Site
											{
												OFFSET 0.000000 3.314529 0.000000
											}
										}
									}
								}
								JOINT LeftHandMiddle1
								{
									OFFSET 8.085388 0.797127 0.009041
									CHANNELS 3 Xrotation Yrotation Zrotation
									JOINT LeftHandMiddle2
									{
										OFFSET 4.055710 -0.878586 -0.370356
										CHANNELS 3 Xrotation Yrotation Zrotation
										JOINT LeftHandMiddle3
										{
											OFFSET 2.822098 -1.032654 -0.279992
											CHANNELS 3 Xrotation Yrotation Zrotation
											End Site
											{
												OFFSET 0.000000 3.018112 0.000000
											}
										}
									}
								}
								JOINT LeftHandRing1
								{
									OFFSET 8.600105 0.164856 -2.793547
									CHANNELS 3 Xrotation Yrotation Zrotation
									JOINT LeftHandRing2
									{
										OFFSET 3.528015 -0.934578 -0.396605
										CHANNELS 3 Xrotation Yrotation Zrotation
										JOINT LeftHandRing3
										{
											OFFSET 2.593292 -0.815781 -0.236382
											CHANNELS 3 Xrotation Yrotation Zrotation
											End Site
											{
												OFFSET 0.000000 2.728836 0.000000
											}
										}
									}
								}
								JOINT LeftHandPinky1
								{
									OFFSET 8.001732 -1.051186 -4.918592
									CHANNELS 3 Xrotation Yrotation Zrotation
									JOINT LeftHandPinky2
									{
										OFFSET 2.860458 -0.755989 -0.813781
										CHANNELS 3 Xrotation Yrotation Zrotation
										JOINT LeftHandPinky3
										{
											OFFSET 2.324455 -0.524551 -0.249960
											CHANNELS 3 Xrotation Yrotation Zrotation
											End Site
											{
												OFFSET 0.000000 2.395981 0.000000
											}
										}
									}
								}
							}
							JOINT LeftSleeve
							{
								OFFSET 19.689919 -0.223915 -0.065017
								CHANNELS 3 Xrotation Yrotation Zrotation
								End Site
								{
									OFFSET 0.000000 25.731148 0.000000
								}
							}
						}
					}
				}
				JOINT RightShoulder
				{
					OFFSET -4.395899 7.341194 -1.870206
					CHANNELS 3 Xrotation Yrotation Zrotation
					JOINT RightArm
					{
						OFFSET -8.071857 0.932961 -2.181078
						CHANNELS 3 Xrotation Yrotation Zrotation
						JOINT RightForeArm
						{
							OFFSET -31.169025 -0.110435 -2.533666
							CHANNELS 3 Xrotation Yrotation Zrotation
							JOINT RightHand
							{
								OFFSET -31.758495 -0.038696 -0.890710
								CHANNELS 3 Xrotation Yrotation Zrotation
								JOINT RightHandThumb1
								{
									OFFSET -3.016930 -1.208313 4.880487
									CHANNELS 3 Xrotation Yrotation Zrotation
									JOINT RightHandThumb2
									{
										OFFSET -2.437279 -1.204437 1.406657
										CHANNELS 3 Xrotation Yrotation Zrotation
										JOINT RightHandThumb3
										{
											OFFSET -2.255142 -1.535332 0.972157
											CHANNELS 3 Xrotation Yrotation Zrotation
											End Site
											{
												OFFSET 0.000000 2.896202 0.000000
											}
										}
									}
								}
								JOINT RightHandIndex1
								{
									OFFSET -8.518402 0.916595 3.189166
									CHANNELS 3 Xrotation Yrotation Zrotation
									JOINT RightHandIndex2
									{
										OFFSET -3.305611 -0.513840 0.146994
										CHANNELS 3 Xrotation Yrotation Zrotation
										JOINT RightHandIndex3
										{
											OFFSET -3.149467 -1.032913 -0.006706
											CHANNELS 3 Xrotation Yrotation Zrotation
											End Site
											{
												OFFSET 0.000000 3.314529 0.000000
											}
										}
									}
								}
								JOINT RightHandMiddle1
								{
									OFFSET -8.085396 0.797043 0.004547
									CHANNELS 3 Xrotation Yrotation Zrotation
									JOINT RightHandMiddle2
									{
										OFFSET -4.055504 -0.878647 -0.372611
										CHANNELS 3 Xrotation Yrotation Zrotation
										JOINT RightHandMiddle3
										{
											OFFSET -2.821922 -1.032684 -0.281561
											CHANNELS 3 Xrotation Yrotation Zrotation
											End Site
											{
												OFFSET 0.000000 3.018112 0.000000
											}
										}
									}
								}
								JOINT RightHandRing1
								{
									OFFSET -8.598557 0.164757 -2.798328
									CHANNELS 3 Xrotation Yrotation Zrotation
									JOINT RightHandRing2
									{
										OFFSET -3.527779 -0.934624 -0.398566
										CHANNELS 3 Xrotation Yrotation Zrotation
										JOINT RightHandRing3
										{
											OFFSET -2.593147 -0.815811 -0.237823
											CHANNELS 3 Xrotation Yrotation Zrotation
											End Site
											{
												OFFSET 0.000000 2.728836 0.000000
											}
										}
									}
								}
								JOINT RightHandPinky1
								{
									OFFSET -7.998985 -1.051277 -4.923038
									CHANNELS 3 Xrotation Yrotation Zrotation
									JOINT RightHandPinky2
									{
										OFFSET -2.859993 -0.756027 -0.815371
										CHANNELS 3 Xrotation Yrotation Zrotation
										JOINT RightHandPinky3
										{
											OFFSET -2.324310 -0.524582 -0.251251
											CHANNELS 3 Xrotation Yrotation Zrotation
											End Site
											{
												OFFSET 0.000000 2.395981 0.000000
											}
										}
									}
								}
							}
							JOINT RightSleeve
							{
								OFFSET -19.690090 -0.224159 -0.075961
								CHANNELS 3 Xrotation Yrotation Zrotation
								End Site
								{
									OFFSET 0.000000 25.731255 0.000000
								}
							}
						}
					}
				}
				JOINT Hood
				{
					OFFSET 0.369716 14.447853 -5.317849
					CHANNELS 3 Xrotation Yrotation Zrotation
					JOINT Hood1
					{
						OFFSET 0.001672 -5.553833 -5.895097
						CHANNELS 3 Xrotation Yrotation Zrotation
						JOINT Hood2
						{
							OFFSET -0.000161 -8.380455 0.763632
							CHANNELS 3 Xrotation Yrotation Zrotation
							End Site
							{
								OFFSET 0.000000 8.415169 0.000000
							}
						}
					}
				}
				JOINT Left_Breast
				{
					OFFSET 5.682508 3.120148 3.188847
					CHANNELS 3 Xrotation Yrotation Zrotation
					End Site
					{
						OFFSET 0.000000 10.528572 0.000000
					}
				}
				JOINT Right_Breast
				{
					OFFSET -4.947578 3.120087 3.185892
					CHANNELS 3 Xrotation Yrotation Zrotation
					End Site
					{
						OFFSET 0.000000 10.528572 0.000000
					}
				}
				JOINT Whistle
				{
					OFFSET 0.368230 11.471275 0.095403
					CHANNELS 3 Xrotation Yrotation Zrotation
					JOINT Whistle1
					{
						OFFSET -0.002040 -6.349861 7.479819
						CHANNELS 3 Xrotation Yrotation Zrotation
						JOINT Whistle2
						{
							OFFSET -0.001261 -8.217644 4.717561
							CHANNELS 3 Xrotation Yrotation Zrotation
							End Site
							{
								OFFSET 0.000000 9.475494 0.000000
							}
						}
					}
				}
			}
		}
		JOINT Belly
		{
			OFFSET 0.212380 1.592987 3.163679
			CHANNELS 3 Xrotation Yrotation Zrotation
			End Site
			{
				OFFSET 0.000000 7.496605 0.000000
			}
		}
	}
	JOINT FitGrandmaFacialAnim_Joint
	{
		OFFSET 1.280120 -86.211151 -1.082839
		CHANNELS 3 Xrotation Yrotation Zrotation
		End Site
		{
			OFFSET 0.000000 31.666611 0.000000
		}
	}
}
MOTION
Frames: 4
Frame Time: 0.016667
1.609721 82.568161 -5.035486 -7.931946 6.986877 -5.727871 -0.000001 -6.467573 -0.000000 -15.610572 11.811331 11.379990 44.784625 7.467081 4.801456 -21.401670 8.196035 -7.464350 0.000000 0.000000 0.000000 0.000002 0.000001 -0.000000 -0.000000 -0.000002 -0.000001 -13.038154 -7.068818 -3.307938 28.337874 -7.563195 -0.830947 -3.565321 -12.114801 7.875410 0.000000 0.000000 -0.000000 -0.000000 0.000000 0.000000 0.000001 0.000000 0.000000 22.305243 -5.827228 -8.692585 4.323412 0.146923 0.771313 4.317597 0.254436 0.769917 6.233860 2.141240 -5.361027 32.391370 5.275864 -5.339068 -0.000001 -0.000001 -0.000001 -0.000001 -0.000001 -0.000001 -0.000001 -0.000001 -0.000001 -0.000001 -0.000001 -0.000001 -0.000001 -0.000001 -0.000001 -0.000001 -0.000001 -0.000001 -0.000001 -0.000001 -0.000001 -0.000001 -0.000001 -0.000001 -0.000001 -0.000001 -0.000001 -0.000001 -0.000001 -0.000001 -0.000001 -0.000001 -0.000001 -0.000001 -0.000001 -0.000001 -0.000001 -0.000001 -0.000001 -0.000001 -0.000001 -0.000001 -0.000001 -0.000001 -0.000001 -0.000001 -0.000001 -0.000001 -0.000001 -0.000001 -0.000001 -0.000001 -0.000001 -0.000001 -0.000001 -0.000001 -0.000001 0.683442 -4.757085 -8.705570 -21.935844 -18.940243 -57.294690 -0.041811 -9.698908 -0.136651 8.085348 -3.193399 4.101357 -3.541279 13.408049 14.053030 -2.383568 4.818042 7.671130 -0.000001 0.000000 0.000002 0.148816 0.260217 -2.403705 -1.280513 -4.435483 -11.091924 0.000002 -0.000001 0.000001 -0.629186 -7.346958 -2.594240 -3.897029 -2.701310 -23.935230 0.000001 -0.000001 -0.000001 -1.106499 -8.338884 -4.490462 -6.114049 -1.150081 -43.303171 -0.000003 -0.000002 -0.000001 -2.089091 -13.521094 -9.105218 -8.722111 3.029644 -57.859017 0.000001 -0.000001 -0.000001 0.000001 0.000001 0.000000 -0.194354 2.291443 -1.751144 -19.606208 11.314394 80.975356 -0.039367 8.985360 0.136006 32.878704 8.114536 -5.382098 -4.499766 -15.878989 -14.704940 -3.912723 -2.455515 -8.730480 -0.000000 0.000001 -0.000004 2.198803 -6.276659 9.306806 -1.005498 3.886200 4.959743 -0.000005 0.000000 -0.000001 0.957618 1.642792 11.361031 -2.584796 2.314303 15.573757 0.000003 0.000000 0.000000 0.773710 3.162622 15.666951 -4.354953 1.065961 32.151326 -0.000003 0.000000 -0.000001 -3.415756 11.846777 22.127004 -5.399715 -6.691772 44.770350 0.000001 0.000000 -0.000003 0.000000 -0.000001 -0.000001 0.000002 0.000000 -0.000000 0.000002 0.000000 -0.000000 0.000002 0.000000 -0.000000 0.000002 0.000000 -0.000000 0.000002 0.000000 -0.000000 0.000002 0.000000 -0.000000 0.000002 0.000000 -0.000000 0.000002 0.000000 -0.000000 -0.000000 0.000000 0.000002 -0.000001 -0.000000 -0.000000 
1.681540 82.563660 -5.057051 -8.315509 7.297647 -5.741200 -0.000000 -6.467572 0.000000 -15.287531 11.825367 11.372555 44.869828 7.520987 4.838751 -21.493043 7.897692 -7.434712 0.000000 0.000002 -0.000000 0.000000 -0.000000 -0.000000 0.000000 -0.000001 -0.000000 -12.566693 -7.273633 -3.442904 28.402403 -7.555408 -0.744538 -3.661787 -12.145690 7.920439 -0.000000 -0.000002 -0.000000 0.000000 0.000000 -0.000000 -0.000002 -0.000000 0.000001 22.410815 -5.582165 -8.766986 4.244834 0.179287 0.853544 4.237872 0.289959 0.852522 6.296058 2.046060 -5.379577 32.415135 4.881101 -5.563029 -0.000001 -0.000001 -0.000001 -0.000001 -0.000001 -0.000001 -0.000001 -0.000001 -0.000001 -0.000001 -0.000001 -0.000001 -0.000001 -0.000001 -0.000001 -0.000001 -0.000001 -0.000001 -0.000001 -0.000001 -0.000001 -0.000001 -0.000001 -0.000001 -0.000001 -0.000001 -0.000001 -0.000001 -0.000001 -0.000001 -0.000001 -0.000001 -0.000001 -0.000001 -0.000001 -0.000001 -0.000001 -0.000001 -0.000001 -0.000001 -0.000001 -0.000001 -0.000001 -0.000001 -0.000001 -0.000001 -0.000001 -0.000001 -0.000001 -0.000001 -0.000001 -0.000001 -0.000001 -0.000001 -0.000001 -0.000001 -0.000001 0.673837 -4.345954 -8.724433 -23.585325 -20.266751 -59.224379 -0.026004 -5.312008 -0.134224 7.781760 -1.415374 6.711422 -3.520913 13.493746 14.030890 -2.383566 4.818041 7.671126 -0.000000 0.000000 0.000003 0.214567 0.669990 -1.840385 -1.281085 -4.436460 -11.103452 0.000000 -0.000000 -0.000000 -0.503685 -7.151518 -1.929448 -3.957442 -2.713140 -24.313672 -0.000000 0.000002 -0.000001 -1.025855 -8.399361 -3.709330 -6.245464 -1.139590 -44.139712 0.000003 -0.000002 -0.000002 -2.004111 -13.786256 -8.222452 -8.933948 3.090490 -59.047368 -0.000001 0.000000 -0.000002 -0.000000 -0.000001 0.000001 -0.200341 2.255767 -1.890102 -20.144478 11.976523 81.852557 -0.036694 8.247752 0.135567 34.968752 9.330510 -3.294915 -4.501294 -15.852750 -14.698412 -3.912424 -2.457590 -8.730852 -0.000000 0.000003 0.000005 2.277780 -6.389986 9.607500 -1.005504 3.886202 4.959881 -0.000002 -0.000000 -0.000000 0.977220 1.611142 11.639606 -2.585273 2.314479 15.576851 0.000001 -0.000000 -0.000000 0.739932 3.231461 15.925670 -4.355273 1.065985 32.153454 -0.000002 0.000002 -0.000001 -3.544174 11.968453 22.386391 -5.399723 -6.691766 44.770353 0.000001 -0.000003 -0.000001 -0.000001 -0.000001 -0.000001 0.000001 -0.000000 0.000000 0.000001 -0.000000 0.000000 0.000001 -0.000000 0.000000 0.000001 -0.000000 0.000000 0.000001 -0.000000 0.000000 0.000001 -0.000000 0.000000 0.000001 -0.000000 0.000000 0.000001 -0.000000 0.000000 -0.000001 0.000000 0.000000 0.000001 0.000000 0.000000 
1.744749 82.588638 -5.045753 -8.632557 7.663781 -5.726088 0.000000 -6.467571 0.000000 -14.955674 11.857553 11.351698 44.817164 7.573759 4.854860 -21.530718 7.520282 -7.395462 0.000000 0.000000 -0.000000 -0.000001 0.000001 -0.000000 0.000001 -0.000001 -0.000000 -12.059321 -7.476980 -3.588925 28.337073 -7.563439 -0.649923 -3.725403 -12.222248 7.968082 0.000000 -0.000002 0.000000 -0.000000 0.000002 -0.000000 -0.000001 0.000000 0.000000 22.433389 -5.413422 -8.831349 4.133713 0.201983 0.930887 4.125800 0.314542 0.929989 6.334325 1.940317 -5.391292 32.282640 4.521314 -5.961180 -0.000000 0.000001 -0.000001 -0.000000 0.000001 -0.000001 -0.000000 0.000001 -0.000001 -0.000000 0.000001 -0.000001 -0.000000 0.000001 -0.000001 -0.000000 0.000001 -0.000001 -0.000000 0.000001 -0.000001 -0.000000 0.000001 -0.000001 -0.000000 0.000001 -0.000001 -0.000000 0.000001 -0.000001 -0.000000 0.000001 -0.000001 -0.000000 0.000001 -0.000001 -0.000000 0.000001 -0.000001 -0.000000 0.000001 -0.000001 -0.000000 0.000001 -0.000001 -0.000000 0.000001 -0.000001 -0.000000 0.000001 -0.000001 -0.000000 0.000001 -0.000001 -0.000000 0.000001 -0.000001 0.662093 -3.939410 -8.735179 -24.748702 -21.373527 -60.949466 -0.013535 -1.797601 -0.133188 7.126572 0.813465 8.812397 -3.501361 13.545296 13.996742 -2.383568 4.818042 7.671134 -0.000000 0.000000 0.000001 0.276512 1.089701 -1.507557 -1.281681 -4.437487 -11.115682 0.000002 -0.000000 -0.000000 -0.394456 -6.901716 -1.451432 -4.023120 -2.725518 -24.724605 -0.000000 0.000000 -0.000000 -0.932243 -8.355816 -3.056683 -6.387962 -1.126037 -45.048137 -0.000001 0.000000 -0.000000 -1.880447 -13.909679 -7.420004 -9.162578 3.161534 -60.338014 0.000001 0.000000 -0.000000 0.000001 -0.000000 -0.000000 -0.201598 2.145567 -2.024060 -20.482100 12.502435 82.651757 -0.035116 7.813940 0.135339 36.892413 10.576018 -1.115883 -4.504117 -15.783780 -14.681560 -3.912925 -2.457649 -8.730717 0.000002 0.000003 0.000000 2.358066 -6.452289 9.999510 -1.005506 3.886228 4.960072 -0.000001 -0.000000 0.000000 0.993144 1.596457 11.971302 -2.585712 2.314629 15.579708 0.000001 0.000000 0.000000 0.718039 3.279848 16.189012 -4.355560 1.066029 32.155335 -0.000003 0.000000 -0.000001 -3.636218 12.044990 22.607031 -5.399712 -6.691777 44.770377 -0.000001 -0.000001 -0.000002 -0.000001 0.000001 -0.000002 0.000001 -0.000000 -0.000001 0.000001 -0.000000 -0.000001 0.000001 -0.000000 -0.000001 0.000001 -0.000000 -0.000001 0.000001 -0.000000 -0.000001 0.000001 -0.000000 -0.000001 0.000001 -0.000000 -0.000001 0.000001 -0.000000 -0.000001 0.000001 -0.000000 0.000001 0.000000 0.000000 0.000000 
1.802634 82.644928 -5.000821 -8.894509 8.057206 -5.688496 -0.000001 -6.467574 0.000001 -14.593157 11.916075 11.317984 44.621510 7.625685 4.852521 -21.517654 7.086615 -7.349061 -0.000000 -0.000000 -0.000000 -0.000002 0.000001 -0.000001 0.000001 -0.000001 -0.000001 -11.499487 -7.660059 -3.727025 28.120251 -7.593913 -0.562884 -3.739985 -12.337150 8.025529 -0.000000 0.000000 -0.000000 -0.000000 0.000000 0.000000 0.000000 0.000001 0.000000 22.374288 -5.323858 -8.882028 3.999443 0.214995 0.991227 3.990887 0.327722 0.990229 6.336057 1.838044 -5.398900 31.969366 4.256894 -6.515818 0.000000 0.000002 -0.000001 0.000000 0.000002 -0.000001 0.000000 0.000002 -0.000001 0.000000 0.000002 -0.000001 0.000000 0.000002 -0.000001 0.000000 0.000002 -0.000001 0.000000 0.000002 -0.000001 0.000000 0.000002 -0.000001 0.000000 0.000002 -0.000001 0.000000 0.000002 -0.000001 0.000000 0.000002 -0.000001 0.000000 0.000002 -0.000001 0.000000 0.000002 -0.000001 0.000000 0.000002 -0.000001 0.000000 0.000002 -0.000001 0.000000 0.000002 -0.000001 0.000000 0.000002 -0.000001 0.000000 0.000002 -0.000001 0.000000 0.000002 -0.000001 0.649427 -3.574097 -8.750240 -25.234028 -22.177921 -62.326549 -0.005299 0.535541 -0.132908 6.326026 3.192392 9.922535 -3.482087 13.560349 13.951612 -2.383567 4.818042 7.671131 0.000001 0.000000 0.000002 0.333765 1.478755 -1.464104 -1.282190 -4.438342 -11.125962 -0.000001 -0.000001 0.000000 -0.313640 -6.625259 -1.220786 -4.089464 -2.737542 -25.139165 -0.000001 -0.000001 -0.000001 -0.840161 -8.219519 -2.595215 -6.531802 -1.110029 -45.966398 -0.000001 0.000002 0.000001 -1.737320 -13.889348 -6.763332 -9.392149 3.238599 -61.643215 -0.000000 0.000001 0.000002 0.000001 -0.000000 0.000000 -0.198740 1.964395 -2.135078 -20.604208 12.957181 83.349126 -0.034664 7.688728 0.135207 38.371572 11.631074 0.907530 -4.510360 -15.685656 -14.661411 -3.913929 -2.456310 -8.730277 0.000002 0.000000 0.000002 2.436624 -6.465811 10.450644 -1.005500 3.886222 4.960181 0.000001 -0.000000 -0.000000 1.006685 1.595372 12.328772 -2.586081 2.314747 15.582139 0.000000 0.000000 -0.000001 0.711092 3.303044 16.435132 -4.355785 1.066034 32.156794 -0.000003 0.000000 0.000001 -3.684369 12.072342 22.770454 -5.399733 -6.691751 44.770350 0.000003 -0.000000 0.000000 -0.000000 0.000001 0.000002 -0.000002 -0.000000 0.000000 -0.000002 -0.000000 0.000000 -0.000002 -0.000000 0.000000 -0.000002 -0.000000 0.000000 -0.000002 -0.000000 0.000000 -0.000002 -0.000000 0.000000 -0.000002 -0.000000 0.000000 -0.000002 -0.000000 0.000000 0.000000 -0.000000 -0.000000 -0.000001 -0.000001 0.000001 
